<?xml version="1.0" encoding="utf-8"?>
<!-- Generator: Adobe Illustrator 16.0.0, SVG Export Plug-In . SVG Version: 6.00 Build 0)  -->
<!DOCTYPE svg PUBLIC "-//W3C//DTD SVG 1.1//EN" "http://www.w3.org/Graphics/SVG/1.1/DTD/svg11.dtd">
<svg version="1.1" id="Capa_1" xmlns="http://www.w3.org/2000/svg" xmlns:xlink="http://www.w3.org/1999/xlink" x="0px" y="0px"
	 width="1200px" height="396.151px" viewBox="0 0 1200 396.151" enable-background="new 0 0 1200 396.151" xml:space="preserve">
<g>
	<g>
		<path fill="#C94E5B" stroke="#354556" stroke-width="0.822" stroke-miterlimit="10" d="M165.935,192.41
			c-0.078,0-0.15,0.012-0.228,0.016v-3.07h-13.486v18.383v0.314c0,0.541,0.438,0.977,0.981,0.977h11.521
			c0.543,0,0.983-0.436,0.983-0.977v-0.297v-3.395c0.077,0.006,0.149,0.014,0.228,0.014c3.323,0,6.031-2.684,6.031-5.979
			C171.966,195.096,169.258,192.41,165.935,192.41z M165.935,202.109c-0.078,0-0.15-0.006-0.228-0.012v-7.412
			c0.077-0.006,0.149-0.012,0.228-0.012c2.067,0,3.747,1.668,3.747,3.723C169.682,200.445,168.002,202.109,165.935,202.109z"/>
		<path opacity="0.4" fill="#FFFFFF" d="M162.134,188.357c-3.307-6.273,3.622-8.936-0.439-16.375
			C163.723,178.023,156.309,182.836,162.134,188.357z"/>
		<path opacity="0.4" fill="#FFFFFF" d="M158.905,187.316c-5.356-8.834,5.865-12.586-0.714-23.068
			C161.48,172.758,149.469,179.543,158.905,187.316z"/>
	</g>
	<polygon opacity="0.26" fill="#354556" points="233.756,332.043 206.016,279.01 204.761,281.195 204.761,281.195 202.391,279.01 
		156.206,279.01 154.128,283.053 163.827,328.732 176.019,331.291 176.019,331.291 175.587,332.043 	"/>
	<polygon opacity="0.26" fill="#354556" points="137.605,187.125 124.106,210.65 149.912,210.65 	"/>
	<path opacity="0.26" fill="#354556" d="M148.416,158.797c0,0-5.742-2.01-11.528,3.781c-2.97,2.967-3.888,5.922-4.075,8.094
		c-0.124,1.422-0.22,3.164-1.229,4.174l-1.094,1.092l-0.207-18.611l1.918-1.92c0.925-0.924,2.472-1.066,3.774-1.178
		c1.991-0.176,4.697-1.014,7.423-3.736c5.305-5.305,3.465-10.57,3.465-10.57s-5.265-1.84-10.568,3.467
		c-2.723,2.723-3.564,5.428-3.737,7.422c-0.113,1.303-0.201,2.9-1.126,3.828l-1.166,1.164l-0.201-17.996l1.548-1.545
		c0.704-0.705,1.878-0.813,2.869-0.896c1.514-0.133,3.57-0.773,5.641-2.842c4.032-4.031,2.632-8.033,2.632-8.033
		s-3.998-1.396-8.029,2.637c-2.068,2.066-2.709,4.125-2.84,5.639c-0.09,0.99-0.154,2.205-0.857,2.908l-0.976,0.977l-0.098-8.709
		v-1.178c0-0.998,0.812-1.902,1.452-2.662c0.978-1.166,1.98-3.07,1.98-5.996c0-5.701-3.817-7.543-3.817-7.543
		s-3.817,1.842-3.817,7.543c0,2.926,1.005,4.832,1.981,5.996c0.639,0.76,1.395,1.664,1.395,2.662v1.178l-0.14,14.979l-0.632-0.861
		c-0.667-0.916-0.531-2.295-0.454-3.426c0.116-1.729-0.245-4.156-2.212-6.846c-3.833-5.244-8.582-4.369-8.582-4.369
		s-2.273,4.26,1.56,9.506c1.969,2.691,4.176,3.768,5.855,4.18c1.1,0.27,2.404,0.598,3.073,1.512l1.376,1.885l-0.157,17.111
		l-0.81-0.883c-0.968-1.055-0.983-2.807-1.046-4.238c-0.093-2.189-0.883-5.189-3.728-8.297c-5.545-6.059-11.393-4.301-11.393-4.301
		s-2.268,5.666,3.281,11.727c2.847,3.109,5.767,4.16,7.937,4.445c1.419,0.186,3.104,0.414,4.069,1.469l1.672,1.828l-0.18,19.354
		l-1.078-1.08c-1.133-1.131-1.238-3.086-1.378-4.682c-0.214-2.438-1.241-5.744-4.569-9.076c-6.49-6.488-12.927-4.24-12.927-4.24
		s-2.25,6.438,4.238,12.928c3.331,3.33,6.641,4.359,9.077,4.568c1.593,0.139,3.485,0.313,4.616,1.445l2.004,2.004l-0.023,2.543
		h2.036l-0.106-9.525l1.917-1.912c1.009-1.01,2.694-1.164,4.114-1.287c2.176-0.188,5.126-1.105,8.099-4.074
		C150.424,164.537,148.416,158.797,148.416,158.797z"/>
	<g>
		<path fill="#6EA172" d="M138.951,158.797c0,0-5.742-2.01-11.529,3.781c-2.969,2.967-3.887,5.922-4.074,8.094
			c-0.124,1.422-0.221,3.164-1.23,4.174l-1.093,1.092l-0.207-18.611l1.917-1.92c0.926-0.924,2.472-1.066,3.774-1.178
			c1.992-0.176,4.698-1.014,7.423-3.736c5.306-5.305,3.465-10.57,3.465-10.57s-5.264-1.84-10.568,3.467
			c-2.723,2.723-3.563,5.428-3.737,7.422c-0.112,1.303-0.201,2.9-1.126,3.828l-1.166,1.164l-0.201-17.996l1.548-1.545
			c0.705-0.705,1.879-0.813,2.869-0.896c1.515-0.133,3.571-0.773,5.641-2.842c4.033-4.031,2.633-8.033,2.633-8.033
			s-3.999-1.396-8.029,2.637c-2.069,2.066-2.71,4.125-2.84,5.639c-0.09,0.99-0.154,2.205-0.858,2.908l-0.975,0.977l-0.099-8.709
			v-1.178c0-0.998,0.813-1.902,1.453-2.662c0.978-1.166,1.98-3.07,1.98-5.996c0-5.701-3.817-7.543-3.817-7.543
			s-3.817,1.842-3.817,7.543c0,2.926,1.004,4.832,1.981,5.996c0.639,0.76,1.395,1.664,1.395,2.662v1.178l-0.14,14.979l-0.632-0.861
			c-0.667-0.916-0.532-2.295-0.454-3.426c0.116-1.729-0.245-4.156-2.213-6.846c-3.832-5.244-8.581-4.369-8.581-4.369
			s-2.273,4.26,1.559,9.506c1.969,2.691,4.176,3.768,5.855,4.18c1.101,0.27,2.404,0.598,3.073,1.512l1.378,1.885l-0.159,17.111
			l-0.81-0.883c-0.967-1.055-0.983-2.807-1.046-4.238c-0.092-2.189-0.883-5.189-3.728-8.297c-5.545-6.059-11.391-4.301-11.391-4.301
			s-2.269,5.666,3.279,11.727c2.847,3.109,5.767,4.16,7.938,4.445c1.418,0.186,3.103,0.414,4.069,1.469l1.672,1.828l-0.181,19.354
			l-1.077-1.08c-1.133-1.131-1.239-3.086-1.377-4.682c-0.216-2.438-1.243-5.744-4.571-9.076c-6.489-6.488-12.926-4.24-12.926-4.24
			s-2.25,6.438,4.238,12.928c3.331,3.33,6.641,4.359,9.077,4.568c1.593,0.139,3.484,0.313,4.617,1.445l2.002,2.004l-0.105,11.467
			h2.22l-0.208-18.449l1.918-1.912c1.008-1.01,2.694-1.164,4.114-1.287c2.175-0.188,5.125-1.105,8.098-4.074
			C140.958,164.537,138.951,158.797,138.951,158.797z"/>
		
			<path fill="#FFFFFF" stroke="#354556" stroke-width="1.0023" stroke-linecap="round" stroke-linejoin="round" stroke-miterlimit="10" d="
			M102.861,187.125h34.744l-3.025,17.779c-0.545,3.201-3.329,5.551-6.572,5.551h-15.549c-3.245,0-6.026-2.35-6.572-5.551
			L102.861,187.125z"/>
		<path opacity="0.23" fill="#828282" d="M129.034,187.125l-3.025,17.779c-0.547,3.201-3.33,5.551-6.572,5.551h8.571
			c3.243,0,6.027-2.35,6.572-5.551l3.025-17.779H129.034z"/>
	</g>
	<g>
		<g opacity="0.23">
			<path fill="#828282" d="M309.768,210.006c-4.258-1.402-4.493-8.66-4.493-8.66l-1.271-15.971h-17.185h-0.547h-17.188
				l-1.271,15.971c0,0-0.233,7.258-4.494,8.66c-4.532,1.5-8.887,2.504-5.304,2.504c3.472,0,27.083,0,28.481,0c0,0,0.033,0,0.095,0
				c1.397,0,25.01,0,28.481,0C318.658,212.51,314.3,211.506,309.768,210.006z"/>
			<path fill="#354556" d="M368.819,82.71H203.986c-1.59,0-2.882,1.294-2.882,2.884v86.943v14.781c0,1.588,1.292,2.877,2.882,2.877
				h164.833c1.588,0,2.883-1.289,2.883-2.877v-14.781V85.594C371.702,84.004,370.407,82.71,368.819,82.71z"/>
			<rect x="212.097" y="91.877" fill="#828282" width="148.612" height="71.572"/>
			<path fill="#828282" d="M329.65,212.121c-2.497-3.033-8.419-2.793-8.419-2.793h-69.38c0,0-6.17,0.121-8.666,3.449
				c-2.368,3.156-1.231,5.998-1.231,5.998h0.004c-0.021-0.074,1.968,0,1.968,0h85.231c0,0,2.071,0.057,1.969,0h0.016
				C331.142,218.775,331.491,214.355,329.65,212.121z"/>
		</g>
		
			<path fill="#ECEFF0" stroke="#354556" stroke-width="1.9651" stroke-linecap="round" stroke-linejoin="round" stroke-miterlimit="10" d="
			M295.764,204.406c-4.26-1.406-4.494-8.664-4.494-8.664l-1.271-15.969h-17.187h-0.547h-17.188l-1.27,15.969
			c0,0-0.234,7.258-4.495,8.664c-4.532,1.498-8.885,2.5-5.303,2.5c3.47,0,27.082,0,28.48,0c0,0,0.034,0,0.095,0
			c1.4,0,25.01,0,28.481,0C304.652,206.906,300.297,205.904,295.764,204.406z"/>
		<polygon opacity="0.34" fill="#828282" points="255.078,179.773 253.952,193.93 291.127,193.93 289.999,179.773 272.813,179.773 
			272.266,179.773 		"/>
		
			<path fill="#ECEFF0" stroke="#354556" stroke-width="1.9651" stroke-linecap="round" stroke-linejoin="round" stroke-miterlimit="10" d="
			M315.767,206.516c-2.497-3.029-8.418-2.789-8.418-2.789h-69.383c0,0-6.168,0.121-8.666,3.449
			c-2.368,3.158-1.232,5.996-1.232,5.996h0.006c-0.021-0.074,1.968,0,1.968,0h85.233c0,0,2.07,0.059,1.969,0h0.014
			C317.257,213.172,317.606,208.754,315.767,206.516z"/>
		<g>
			
				<path fill="#ECEFF0" stroke="#354556" stroke-width="1.9651" stroke-linecap="round" stroke-linejoin="round" stroke-miterlimit="10" d="
				M189.979,77.109c-1.588,0-2.881,1.294-2.881,2.881v101.727c0,1.588,1.293,2.877,2.881,2.877h164.836
				c1.586,0,2.882-1.289,2.882-2.877V79.99c0-1.587-1.296-2.881-2.882-2.881H189.979z"/>
		</g>
		<g>
			
				<path fill="#ECEFF0" stroke="#354556" stroke-width="2.6201" stroke-linecap="round" stroke-linejoin="round" stroke-miterlimit="10" d="
				M189.979,77.109c-1.588,0-2.881,1.294-2.881,2.881v86.945h170.599V79.99c0-1.587-1.296-2.881-2.882-2.881H189.979z"/>
		</g>
		<g opacity="0.6">
			
				<path fill="#ECEFF0" stroke="#354556" stroke-width="2.6201" stroke-linecap="round" stroke-linejoin="round" stroke-miterlimit="10" d="
				M189.979,77.109c-1.588,0-2.881,1.294-2.881,2.881v86.945h170.599V79.99c0-1.587-1.296-2.881-2.882-2.881H189.979z"/>
		</g>
		<g>
			
				<path fill="#ECEFF0" stroke="#354556" stroke-width="1.9651" stroke-linecap="round" stroke-linejoin="round" stroke-miterlimit="10" d="
				M189.979,77.109c-1.588,0-2.881,1.294-2.881,2.881v86.945h170.599V79.99c0-1.587-1.296-2.881-2.882-2.881H189.979z"/>
		</g>
		<rect x="196.226" y="86.275" fill="#A9D3FC" width="152.347" height="71.57"/>
		<g opacity="0.79">
			<path fill="#95DECD" d="M304.79,152.111c0,0.658-0.537,1.195-1.197,1.195h-70.832c-0.663,0-1.193-0.537-1.193-1.195V91.455
				c0-0.66,0.53-1.192,1.193-1.192h70.832c0.66,0,1.197,0.532,1.197,1.192V152.111z"/>
			<path fill="#E2ECF0" d="M301.637,145.457c0,0.264-0.218,0.479-0.479,0.479h-65.956c-0.266,0-0.479-0.215-0.479-0.479v-37.396
				c0-0.265,0.213-0.479,0.479-0.479h65.956c0.261,0,0.479,0.214,0.479,0.479V145.457z"/>
			<path fill="#FDFFFF" d="M234.724,99.773c0-0.264,0.213-0.475,0.479-0.475h28.009c0.259,0,0.472,0.211,0.472,0.475v2.43
				c0,0.264-0.213,0.481-0.472,0.481h-28.009c-0.266,0-0.479-0.218-0.479-0.481V99.773z"/>
			<path fill="#FDFFFF" d="M301.73,148.299c0-0.262-0.217-0.479-0.477-0.479h-11.533c-0.269,0-0.479,0.217-0.479,0.479v2.43
				c0,0.262,0.211,0.477,0.479,0.477h11.533c0.26,0,0.477-0.215,0.477-0.477V148.299z"/>
			<path fill="#FDFFFF" d="M285.855,148.299c0-0.262-0.212-0.479-0.479-0.479h-11.539c-0.262,0-0.476,0.217-0.476,0.479v2.43
				c0,0.262,0.214,0.477,0.476,0.477h11.539c0.267,0,0.479-0.215,0.479-0.477V148.299z"/>
			<path fill="#FFFFFF" d="M234.724,104.682c0-0.26,0.213-0.476,0.479-0.476h13.525c0.263,0,0.48,0.216,0.48,0.476v0.74
				c0,0.262-0.218,0.476-0.48,0.476h-13.525c-0.266,0-0.479-0.214-0.479-0.476V104.682z"/>
			<path fill="#FDFFFF" d="M234.724,94.277c0-0.266,0.213-0.477,0.479-0.477h28.009c0.259,0,0.472,0.211,0.472,0.477v2.429
				c0,0.267-0.213,0.48-0.472,0.48h-28.009c-0.266,0-0.479-0.214-0.479-0.48V94.277z"/>
			<g>
				<path fill="#DDE8E5" d="M291.495,94.277c0-0.266,0.213-0.477,0.477-0.477h7.887c0.266,0,0.476,0.211,0.476,0.477v6.055
					c0,0.262-0.21,0.479-0.476,0.479h-7.887c-0.264,0-0.477-0.217-0.477-0.479V94.277z"/>
				<path fill="#FFFFFF" d="M299.959,100.515c0.129,0.099,0.058,0.296-0.101,0.296h-7.887c-0.16,0-0.227-0.197-0.104-0.296
					l3.673-2.913c0.222-0.172,0.532-0.172,0.752,0L299.959,100.515z"/>
				<path fill="#FFFFFF" d="M291.827,94.141c-0.122-0.128-0.033-0.34,0.145-0.34h7.887c0.176,0,0.269,0.212,0.139,0.34l-3.746,3.816
					c-0.188,0.193-0.486,0.193-0.667,0L291.827,94.141z"/>
			</g>
			<polygon fill="#B5C0C3" points="264.269,115.646 237.562,115.646 237.114,113.557 263.822,113.557 			"/>
			<rect x="237.114" y="119.529" fill="#B5C0C3" width="15.193" height="2.092"/>
			<rect x="237.562" y="141.117" fill="#B5C0C3" width="9.62" height="2.09"/>
			<rect x="255.754" y="119.529" fill="#B5C0C3" width="23.958" height="2.092"/>
			<rect x="237.114" y="123.512" fill="#B5C0C3" width="23.958" height="2.092"/>
			<rect x="237.562" y="127.563" fill="#B5C0C3" width="42.598" height="2.088"/>
		</g>
	</g>
	<path opacity="0.26" fill="#354556" d="M453.27,156.855c-0.155,0-0.3,0.031-0.45,0.045l-29.958-29.957l4.363-4.352
		c1.207-1.203,1.208-3.156,0.007-4.361l-6.021-6.035c-1.202-1.205-3.154-1.207-4.363-0.006l-8.407,8.391l-14.941,4.525h-0.002
		l-3.614,1.096c-1.617,0.492-2.132,2.529-0.938,3.73l6.09,6.104c-0.576,0.746-0.995,1.633-1.184,2.623
		c-0.638,3.371,1.574,6.613,4.941,7.252c1.805,0.344,3.57-0.139,4.924-1.174l5.702,5.717c1.196,1.197,3.234,0.691,3.731-0.928
		l5.666-18.545l0.594-0.594l29.047,29.049c-0.613,0.918-0.973,2.02-0.973,3.207c0,0.994,0.273,1.912,0.714,2.729l-26.672,26.674
		c-0.775-0.324-1.626-0.508-2.52-0.508c-3.577,0-6.478,2.9-6.478,6.477v3.762h-11.748c-1.604,0-2.898,1.297-2.898,2.895v3.939v0.064
		h0.013c0.035,0.449,0.398,0.807,0.856,0.807h40.509c0.454,0,0.818-0.357,0.854-0.807h0.014v-0.064v-3.939
		c0-1.598-1.294-2.895-2.894-2.895h-11.754v-3.762c0-0.893-0.182-1.744-0.508-2.52l27.18-27.176c0.362,0.07,0.735,0.111,1.118,0.111
		c3.197,0,5.789-2.592,5.789-5.787C459.059,159.445,456.467,156.855,453.27,156.855z"/>
	<polygon opacity="0.26" fill="#354556" points="454.006,209.191 120.186,216.477 120.186,221.09 117.09,221.074 117.09,332.689 
		145.842,332.748 145.842,234.715 435.031,234.715 435.031,332.689 445.984,332.689 528.626,332.689 	"/>
	
		<rect x="333.717" y="220.207" fill="#F9F4DF" stroke="#354556" stroke-width="3.0661" stroke-linecap="round" stroke-linejoin="round" stroke-miterlimit="10" width="103.313" height="111.084"/>
	
		<polygon fill="#F7EBB6" stroke="#354556" stroke-width="3.0661" stroke-linecap="round" stroke-linejoin="round" stroke-miterlimit="10" points="
		120.998,331.291 120.998,219.676 109.319,219.617 109.319,331.232 	"/>
	
		<polygon fill="#F7EBB6" stroke="#354556" stroke-width="3.0661" stroke-linecap="round" stroke-linejoin="round" stroke-miterlimit="10" points="
		344.578,331.291 344.578,219.676 333.624,219.617 333.624,331.232 	"/>
	<polygon opacity="0.23" fill="#828282" points="350.195,332.744 349.92,221.133 343.966,221.045 344.242,332.66 	"/>
	
		<polygon fill="#F7EBB6" stroke="#354556" stroke-width="3.0661" stroke-linecap="round" stroke-linejoin="round" stroke-miterlimit="10" points="
		438.215,331.291 438.215,219.676 427.261,219.617 427.261,331.232 	"/>
	
		<rect x="94.934" y="210.65" fill="#D6B279" stroke="#354556" stroke-width="3.0661" stroke-linecap="round" stroke-linejoin="round" stroke-miterlimit="10" width="357.428" height="10.951"/>
	<rect x="333.717" y="221.662" opacity="0.34" fill="#828282" width="103.313" height="7.953"/>
	
		<line fill="#ECEFF0" stroke="#354556" stroke-width="2.0441" stroke-linecap="round" stroke-linejoin="round" stroke-miterlimit="10" x1="346.38" y1="259.074" x2="426.878" y2="259.074"/>
	
		<line fill="#ECEFF0" stroke="#354556" stroke-width="2.0441" stroke-linecap="round" stroke-linejoin="round" stroke-miterlimit="10" x1="346.38" y1="296.857" x2="426.878" y2="296.857"/>
	<circle opacity="0.23" fill="#828282" cx="388.36" cy="243.84" r="4.928"/>
	<circle opacity="0.23" fill="#828282" cx="388.36" cy="282.17" r="4.928"/>
	<path opacity="0.23" fill="#828282" d="M393.288,317.217c0,2.719-2.207,4.928-4.928,4.928c-2.722,0-4.928-2.209-4.928-4.928
		c0-2.725,2.206-4.932,4.928-4.932C391.081,312.285,393.288,314.492,393.288,317.217z"/>
	
		<circle fill="#EBCC95" stroke="#354556" stroke-width="1.5331" stroke-linecap="round" stroke-linejoin="round" stroke-miterlimit="10" cx="386.904" cy="242.098" r="4.928"/>
	
		<circle fill="#EBCC95" stroke="#354556" stroke-width="1.5331" stroke-linecap="round" stroke-linejoin="round" stroke-miterlimit="10" cx="386.904" cy="280.43" r="4.928"/>
	
		<path fill="#EBCC95" stroke="#354556" stroke-width="1.5331" stroke-linecap="round" stroke-linejoin="round" stroke-miterlimit="10" d="
		M391.832,315.473c0,2.725-2.208,4.93-4.928,4.93c-2.723,0-4.929-2.205-4.929-4.93c0-2.719,2.206-4.928,4.929-4.928
		C389.624,310.545,391.832,312.754,391.832,315.473z"/>
	<path fill="#919395" d="M206.108,279.26c-1.045-1.25-2.576-1.967-4.203-1.967h-44.642c-1.627,0-3.155,0.717-4.2,1.967
		c-1.043,1.252-1.472,2.885-1.181,4.484l7.787,42.668c0.595,3.264,3.435,5.631,6.752,5.631h26.328c3.315,0,6.154-2.367,6.749-5.631
		l7.787-42.668C207.58,282.145,207.15,280.512,206.108,279.26z M202.589,282.193c0.102,0.117,0.26,0.375,0.195,0.732l-0.262,1.426
		h-6.657l0.32-2.48h5.72C202.27,281.871,202.49,282.074,202.589,282.193z M177.296,306.48v4.199h-6.166l-0.544-4.199H177.296z
		 M169.995,301.902l-0.541-4.195h7.842v4.195H169.995z M181.873,306.48h6.514l-0.543,4.199h-5.971V306.48z M181.873,301.902v-4.195
		h7.647l-0.544,4.195H181.873z M181.873,293.127v-4.195h8.782l-0.544,4.195H181.873z M181.873,284.352v-2.48h9.694l-0.321,2.48
		H181.873z M177.296,284.352h-9.574l-0.316-2.48h9.891V284.352z M177.296,288.932v4.195h-8.436l-0.543-4.195H177.296z
		 M164.243,293.127h-5.993l-0.767-4.195h6.217L164.243,293.127z M164.837,297.707l0.54,4.195h-5.525l-0.768-4.195H164.837z
		 M165.972,306.48l0.541,4.199h-5.061l-0.765-4.199H165.972z M162.288,315.254h4.818l0.541,4.197h-4.595L162.288,315.254z
		 M171.722,315.254h5.574v4.197h-5.032L171.722,315.254z M177.296,324.029v3.434h-3.994l-0.444-3.434H177.296z M181.873,324.029
		h4.242l-0.444,3.434h-3.798V324.029z M181.873,319.451v-4.197h5.377l-0.542,4.197H181.873z M191.868,315.254h5.015l-0.765,4.197
		h-4.792L191.868,315.254z M192.46,310.68l0.542-4.199h5.48l-0.766,4.199H192.46z M193.594,301.902l0.544-4.195h5.949l-0.769,4.195
		H193.594z M194.729,293.127l0.542-4.195h6.415l-0.767,4.195H194.729z M156.58,282.193c0.099-0.119,0.318-0.322,0.684-0.322h5.524
		l0.32,2.48h-6.462l-0.26-1.426C156.32,282.568,156.48,282.311,156.58,282.193z M164.175,325.59l-0.284-1.561h4.348l0.445,3.434
		h-2.262C165.316,327.463,164.372,326.676,164.175,325.59z M192.75,327.463h-2.46l0.441-3.434h4.547l-0.283,1.561
		C194.798,326.676,193.852,327.463,192.75,327.463z"/>
	<g>
		<g>
			
				<rect x="426.487" y="159.893" transform="matrix(-0.7068 -0.7074 0.7074 -0.7068 604.4427 611.4133)" fill="#ECEFF0" stroke="#354556" stroke-width="1.1646" stroke-linecap="round" stroke-linejoin="round" stroke-miterlimit="10" width="4.876" height="41.109"/>
			
				<rect x="427.202" y="121.136" transform="matrix(-0.7069 0.7073 -0.7073 -0.7069 835.7905 -56.6937)" fill="#ECEFF0" stroke="#354556" stroke-width="1.1646" stroke-linecap="round" stroke-linejoin="round" stroke-miterlimit="10" width="4.879" height="47.369"/>
			<path fill="#F4EB4A" d="M393.457,133.721c3.364,0.635,5.576,3.881,4.938,7.248c-0.635,3.367-3.885,5.58-7.251,4.941
				s-5.579-3.881-4.942-7.252C386.842,135.293,390.089,133.08,393.457,133.721z"/>
			
				<path fill="#E1775B" stroke="#354556" stroke-width="1.1646" stroke-linecap="round" stroke-linejoin="round" stroke-miterlimit="10" d="
				M419.584,118.23l-6.021-6.035c-1.202-1.205-3.153-1.207-4.362-0.006l-8.408,8.391l-18.559,5.621
				c-1.617,0.492-2.131,2.529-0.937,3.73l20.474,20.521c1.196,1.197,3.233,0.691,3.73-0.928l5.666-18.545l8.41-8.389
				C420.785,121.389,420.786,119.436,419.584,118.23z"/>
			
				<circle fill="#E1775B" stroke="#354556" stroke-width="1.1646" stroke-linecap="round" stroke-linejoin="round" stroke-miterlimit="10" cx="445.623" cy="162.643" r="5.788"/>
			<path fill="#F4F4F4" d="M449.04,162.643c0,1.887-1.528,3.418-3.418,3.418c-1.888,0-3.418-1.531-3.418-3.418
				c0-1.885,1.53-3.418,3.418-3.418C447.512,159.225,449.04,160.758,449.04,162.643z"/>
			<path opacity="0.29" fill="#F4F4F4" d="M385.849,125.105l-3.615,1.096c-1.617,0.492-2.131,2.529-0.937,3.73l20.474,20.521
				c1.196,1.197,3.233,0.691,3.73-0.928l1.125-3.684L385.849,125.105z"/>
			
				<path fill="#E1775B" stroke="#354556" stroke-width="1.1646" stroke-linecap="round" stroke-linejoin="round" stroke-miterlimit="10" d="
				M429.586,201.775h-11.753v-3.762c0-3.576-2.899-6.477-6.476-6.477c-3.577,0-6.478,2.9-6.478,6.477v3.762h-11.747
				c-1.604,0-2.898,1.297-2.898,2.895v3.939c0,0.48,0.389,0.871,0.868,0.871h40.509c0.477,0,0.868-0.391,0.868-0.871v-3.939
				C432.479,203.072,431.187,201.775,429.586,201.775z"/>
			
				<path fill="none" stroke="#354556" stroke-width="1.5528" stroke-linecap="round" stroke-linejoin="round" stroke-miterlimit="10" d="
				M419.584,118.23l-6.021-6.035c-1.202-1.205-3.153-1.207-4.362-0.006l-8.408,8.391l-18.559,5.621
				c-1.617,0.492-2.131,2.529-0.937,3.73l20.474,20.521c1.196,1.197,3.233,0.691,3.73-0.928l5.666-18.545l8.41-8.389
				C420.785,121.389,420.786,119.436,419.584,118.23z"/>
		</g>
		<path opacity="0.15" fill="#354556" d="M419.577,122.592c1.208-1.203,1.209-3.156,0.007-4.361l-3.605-3.613l0,0
			c1.874,2.275-0.063,3.797-0.063,3.797l-9.021,9.131l-12.056,15.957l6.933,6.951c1.196,1.197,3.233,0.691,3.73-0.928l5.666-18.545
			L419.577,122.592z"/>
		<rect x="390.234" y="204.67" opacity="0.15" fill="#354556" width="42.245" height="4.004"/>
	</g>
	
		<line fill="#D6B279" stroke="#354556" stroke-width="2" stroke-linecap="round" stroke-linejoin="round" stroke-miterlimit="10" x1="52.738" y1="332.043" x2="542.866" y2="332.043"/>
	<g>
		<g>
			
				<path fill="#E9CDB2" stroke="#354556" stroke-width="1.4637" stroke-linecap="round" stroke-linejoin="round" stroke-miterlimit="10" d="
				M309.163,196.439c0,0-9.101,0.422-13.542,2.273c-3.309,1.377-7.497,5.17-7.791,6.311c-0.525,2.027,2.135,2.57,3.015,2.684
				c0.884,0.115,19.351-0.895,19.351-0.895L309.163,196.439z"/>
			
				<path fill="#E9CDB2" stroke="#354556" stroke-width="1.4637" stroke-linecap="round" stroke-linejoin="round" stroke-miterlimit="10" d="
				M238.077,196.439c0,0,9.101,0.422,13.543,2.273c3.306,1.377,7.497,5.17,7.789,6.311c0.526,2.027-2.133,2.57-3.015,2.684
				c-0.881,0.115-19.351-0.895-19.351-0.895L238.077,196.439z"/>
			<path fill="#FFFFFF" stroke="#354556" stroke-width="1.4637" stroke-miterlimit="10" d="M336.331,209.012
				c0-6.25-2.608-10.686-5.818-18.461h-0.003c-9.008-17.557-16.991-27.07-16.991-27.07c-9.312-9.814-20.381-8.09-20.381-8.09
				l8.149,23.84c0,0,2.341,0.219,11.686,12.033c0.619,0.781,1.217,1.572,1.806,2.363c-4.269,1.168-6.861,2.164-6.861,2.164
				l-1.246,13.195C306.671,208.986,332.629,214.316,336.331,209.012z"/>
			<path fill="#FFFFFF" stroke="#354556" stroke-width="1.4637" stroke-miterlimit="10" d="M213.933,209.012
				c0-6.25,2.609-10.686,5.818-18.461h0.002c9.01-17.557,16.993-27.07,16.993-27.07c9.312-9.814,20.38-8.09,20.38-8.09l-8.15,23.84
				c0,0-2.341,0.219-11.687,12.033c-0.616,0.781-1.215,1.572-1.803,2.363c4.269,1.168,6.86,2.164,6.86,2.164l1.248,13.195
				C243.595,208.986,217.634,214.316,213.933,209.012z"/>
			<path fill="#E9CDB2" stroke="#354556" stroke-width="1.21" stroke-miterlimit="10" d="M256.917,117.016
				c0,0-1.23-3.594-3.107-2.43c-1.915,1.186-1.371,7.188,0.218,12.895c1.588,5.707,3.827,5.281,3.827,5.281
				c-0.363-2.428-0.505-3.697-0.651-8.348C257.145,122.514,256.917,117.016,256.917,117.016z"/>
			<path fill="#E9CDB2" stroke="#354556" stroke-width="1.4637" stroke-miterlimit="10" d="M275.283,92.812
				c-21.24,0.333-19.657,19.659-19.657,19.659l0.632,13.633c0,0,1.043,13.039,9.003,19.873l-0.122,8.893
				c0,0,1.876,5.098,7.579,5.322c8.086,0.318,13.319-4.438,13.319-4.438v-10.205c3.622-3.395,7.028-9.246,8.015-19.236
				c1.241-8.25,1.524-14.795,1.524-14.795S295.576,92.494,275.283,92.812z"/>
			<path fill="#354556" d="M289.596,318.738v16.428h8.56v-3.744c0,0,1.49,3.744,4.929,3.744c4.887,0,15.087,0,15.087,0
				s0.584-6.162-2.866-7.188c-3.451-1.025-12.195-1.539-14.494-8.213c-2.303-6.676-2.303-6.676-2.303-6.676L289.596,318.738z"/>
			<path fill="#354556" d="M262.334,318.738v16.428h-8.558v-3.744c0,0-1.49,3.744-4.931,3.744c-4.886,0-15.086,0-15.086,0
				s-0.585-6.162,2.868-7.188c3.449-1.025,12.194-1.539,14.491-8.213c2.303-6.676,2.303-6.676,2.303-6.676L262.334,318.738z"/>
			
				<polygon fill="#4C646C" stroke="#354556" stroke-width="1.4637" stroke-linecap="round" stroke-linejoin="round" stroke-miterlimit="10" points="
				247.999,213.283 248.982,323.133 263.308,324.42 271.803,246.912 272.521,231.84 273.663,220.912 			"/>
			
				<polygon fill="#4C646C" stroke="#354556" stroke-width="1.4637" stroke-linecap="round" stroke-linejoin="round" stroke-miterlimit="10" points="
				280.835,231.84 280.116,246.912 288.306,324.42 301.886,324.42 304.451,228.637 			"/>
			<path fill="#4E7E86" stroke="#354556" stroke-width="1.4637" stroke-miterlimit="10" d="M301.918,156.021
				c-6.922-1.898-43.75-1.623-49.953-0.119c-2.341,0.568-4.874,1.396-4.398,5.455c0.512,4.361,2.247,18.844,2.385,23.143
				c0.407,12.801,0.467,46.146,0.475,55.764c0,1.428,1.11,2.633,2.54,2.633h45.996c1.402,0,2.547-1.131,2.566-2.535l0.672-54.982
				l3.82-24.26C306.021,161.119,307.45,157.541,301.918,156.021z"/>
			<path fill="#E9CDB2" stroke="#354556" stroke-width="1.21" stroke-miterlimit="10" d="M294.403,117.016
				c0,0,1.228-3.594,3.106-2.43c1.915,1.186,1.369,7.188-0.218,12.895c-1.589,5.707-3.828,5.281-3.828,5.281
				c0.362-2.428,0.506-3.697,0.649-8.348C294.173,122.514,294.403,117.016,294.403,117.016z"/>
			
				<path fill="#754C24" stroke="#354556" stroke-width="1.4637" stroke-linecap="round" stroke-linejoin="round" stroke-miterlimit="10" d="
				M276.091,149.018c0,0-12.175-5.344-16.565-11.389c-4.166-5.734-6.433-22.314-6.912-33.719c-0.235-5.619,1.296-9.764,3.585-12.784
				c0.571-0.751,0.392-0.576-1.723-1.773c1.725-3.593,7.764-3.148,8.35-3.585c2.885-1.803,4.149-1.725,6.594-1.991
				c3.753-0.415,7.708-0.181,10.623,0c1.118,0.069-1.423-4.676-1.264-4.676c4.598,0,8.171,1.8,10.934,6.735
				c7.424,2.311,10.718,7.615,9.196,19.818c-2.81,22.512-2.517,22.256-5,28.162C291.428,139.727,276.091,149.018,276.091,149.018z"
				/>
		</g>
		<g>
			<path fill="#D46464" stroke="#354556" stroke-width="2.6379" stroke-miterlimit="10" d="M318.355,256.908
				c-9.628,10.229-25.671,14.85-44.722,14.85c-19.062,0-35.104-4.621-44.731-14.85c-10.195-10.832-16.646-35.094-10.025-37.5
				c0.493-0.17,0.926-0.289,1.299-0.35c4.729-0.688,1.539,8.172,10.134,23.406c8.015,14.248,10.23,1.408,9.422-11.434
				c-0.806-12.828-11.228-21.662-12.033-45.924c0-0.18-0.013-0.373-0.013-0.553c-0.324-11.928,2.204-17.508,13.853-17.908
				c11.83-0.396,20.063,4.213,32.493,4.416c12.841-0.203,19.857-4.813,31.688-4.416c11.661,0.4,14.175,5.98,13.852,17.908
				c0,0.18-0.013,0.373-0.013,0.553c-0.796,24.262-11.228,33.096-12.035,45.924c-0.794,12.842,1.408,25.682,9.435,11.434
				c8.858-15.717,5.189-24.646,10.614-23.313c0.254,0.063,0.53,0.146,0.82,0.256C335.011,221.814,328.55,246.076,318.355,256.908z"
				/>
			<path opacity="0.2" fill="#CCF3F1" d="M319.576,185.951c-0.313-9.447-3.431-11.529-13.853-11.889
				c-11.831-0.398-18.848,4.211-31.688,4.416c-12.433-0.205-20.663-4.814-32.493-4.416c-10.411,0.359-13.539,2.441-13.854,11.889
				c-0.324-11.926,2.204-17.51,13.854-17.906c11.83-0.398,20.061,4.213,32.493,4.416c12.84-0.203,19.856-4.814,31.688-4.416
				C317.384,168.441,319.898,174.025,319.576,185.951z"/>
			<rect x="269.722" y="271.758" fill="#828D96" width="7.822" height="59.455"/>
			<path fill="#FFFFFF" d="M281.057,334.023c0,2.93-3.55,2.857-7.647,2.857c-4.102,0-7.197,0.072-7.197-2.857
				c0-3.656,3.322-6.619,7.42-6.619C277.733,327.404,281.057,330.367,281.057,334.023z"/>
			
				<ellipse fill="#3D3D3D" stroke="#354556" stroke-width="2.533" stroke-miterlimit="10" cx="273.634" cy="339.287" rx="3.793" ry="4.813"/>
			<path fill="#FFFFFF" d="M284.013,271.553c0,3.072-4.647,5.566-10.381,5.566c-5.732,0-10.379-2.494-10.379-5.566
				c0,0,4.366,0.205,10.098,0.205C279.084,271.758,281.029,271.758,284.013,271.553z"/>
			<g>
				
					<ellipse fill="#3D3D3D" stroke="#354556" stroke-width="2.533" stroke-miterlimit="10" cx="230.975" cy="339.287" rx="4.838" ry="4.813"/>
				<path fill="#828D96" d="M270.766,330.512l-42.923-0.191c-0.94-0.006-1.705,0.756-1.705,1.695l0.049,6.871h9.729l-0.05-1.955
					c0-0.941,0.765-1.705,1.705-1.705h33.294L270.766,330.512z"/>
			</g>
			
				<ellipse fill="#3D3D3D" stroke="#354556" stroke-width="2.533" stroke-miterlimit="10" cx="316.572" cy="339.287" rx="4.84" ry="4.813"/>
			<path fill="#828D96" d="M276.783,330.512l42.922-0.191c0.941-0.006,1.704,0.756,1.704,1.695v7.121h-9.727v-2.205
				c0-0.941-0.763-1.705-1.707-1.705h-33.295L276.783,330.512z"/>
			<path fill="#828D96" d="M278.442,337.33c0,0.941-0.765,1.707-1.708,1.707h-6.217c-0.941,0-1.703-0.766-1.703-1.707l0.009-6.266
				c0-0.941,0.766-1.707,1.708-1.707h6.216c0.941,0,1.703,0.766,1.703,1.707L278.442,337.33z"/>
		</g>
	</g>
</g>
</svg>
