<?xml version="1.0" encoding="utf-8"?>
<!-- Generator: Adobe Illustrator 16.0.0, SVG Export Plug-In . SVG Version: 6.00 Build 0)  -->
<!DOCTYPE svg PUBLIC "-//W3C//DTD SVG 1.1//EN" "http://www.w3.org/Graphics/SVG/1.1/DTD/svg11.dtd">
<svg version="1.1" id="Capa_1" xmlns="http://www.w3.org/2000/svg" xmlns:xlink="http://www.w3.org/1999/xlink" x="0px" y="0px"
	 width="200px" height="200px" viewBox="0 0 200 200" enable-background="new 0 0 200 200" xml:space="preserve">
<g>
	<circle fill="#ECC971" cx="100" cy="92.473" r="85.379"/>
	<g>
		<path opacity="0.2" fill="#434244" d="M155.958,150.461c-9.269,0.886-27.623,1.271-47.233,1.271v-0.176l-19.657-0.087v0.137
			c-19.477-0.244-37.65-0.828-46.851-1.653l-0.126,28.918c12.123-0.752,26.945-1.187,42.218-1.334l-4.762,10.035l8.628-3.859
			l2.465,9.126l7.177-15.133l1.484,0.007l7.043,15.194l2.549-9.1l8.599,3.934l-4.704-10.137c16.507,0.249,31.876,0.836,43.042,1.769
			L155.958,150.461z"/>
		<g>
			<polygon fill="#D36F4A" points="90.642,191.091 88.176,181.956 79.548,185.829 88.414,167.13 99.507,172.399 			"/>
			<polygon fill="#D36F4A" points="106.346,191.163 108.895,182.057 117.494,186.002 108.787,167.224 97.649,172.393 			"/>
			<path fill="#F0F1F1" d="M155.832,177.622c-27.575-2.314-80.686-2.545-113.74-0.508l0.126-28.911
				c21.532,1.92,92.19,2.566,113.74,0.508L155.832,177.622z"/>
			<polygon fill="#D46F4A" points="108.606,175.998 88.95,175.915 89.068,149.712 108.725,149.802 			"/>
		</g>
		<g>
			<g>
				<path fill="#5D6876" d="M94.698,155.011c0-8.754-7.087-15.846-15.845-15.846c-8.746,0-15.834,7.092-15.834,15.846l3.599-2.794
					l3.575,2.794l3.984-2.636l3.776,2.636l5.057-2.743l3.88,2.743l2.873-2.588L94.698,155.011z"/>
				<path fill="#5D6876" d="M133.378,155.932c0-8.747-7.094-15.838-15.837-15.838c-8.754,0-15.841,7.091-15.841,15.838l3.603-2.79
					l3.567,2.79l3.985-2.635l3.782,2.635l5.054-2.739l3.881,2.739l2.869-2.588L133.378,155.932z"/>
			</g>
			<g>
				<path fill="#B2DADD" d="M146.113,66.734v32.851c0,26.007-21.083,47.089-47.088,47.089l0,0
					c-26.006,0-47.088-21.082-47.088-47.089V66.734H146.113z"/>
				<path opacity="0.2" fill="#141819" d="M51.937,67.702v31.883c0,1.592,0.083,3.168,0.237,4.719
					c0.011,0.091,0.018,0.174,0.033,0.265c0.144,1.392,0.363,2.774,0.629,4.127c0.083,0.422,0.188,0.829,0.281,1.242
					c0.252,1.127,0.526,2.245,0.857,3.338c0.129,0.424,0.288,0.839,0.425,1.258c0.381,1.138,0.77,2.275,1.238,3.374
					c0,0.011,0.007,0.025,0.015,0.032c3.127,7.394,8.124,13.79,14.351,18.681c3.502-6.09,6.566-12.926,8.952-20.354
					c5.94-18.476,6.418-36.416,2.448-49.531H67.439L51.937,67.702z"/>
				<path opacity="0.2" fill="#141819" d="M146.358,67.702v31.883c0,1.592-0.083,3.168-0.237,4.719
					c-0.011,0.091-0.022,0.174-0.033,0.265c-0.144,1.392-0.363,2.774-0.63,4.127c-0.083,0.422-0.188,0.829-0.284,1.242
					c-0.249,1.127-0.522,2.245-0.853,3.338c-0.13,0.424-0.288,0.839-0.428,1.258c-0.378,1.138-0.771,2.275-1.235,3.374
					c-0.003,0.011-0.011,0.025-0.015,0.032c-3.131,7.394-8.124,13.79-14.351,18.681c-3.506-6.09-6.565-12.926-8.956-20.354
					c-5.939-18.476-6.414-36.416-2.444-49.531h13.959L146.358,67.702z"/>
				<path fill="#86C2C6" d="M51.937,99.585c0,13.596,5.792,25.809,15.006,34.4c3.794-5.684,7.199-12.151,9.975-19.238
					c6.922-17.671,8.409-35.165,5.133-48.013H51.937V99.585z"/>
				<path fill="#86C2C6" d="M146.229,99.585c0,13.596-5.795,25.809-15.01,34.4c-3.798-5.684-7.199-12.151-9.974-19.238
					c-6.926-17.671-8.408-35.165-5.133-48.013h30.117V99.585z"/>
				<path opacity="0.2" fill="#141819" d="M119.017,33.971c-1.857,0-3.668,0.406-5.425,1.069c0.857-0.345,1.761-0.663,2.718-0.937
					c8.225-2.354,23.292,6.016,25.898-8.4c0,0-5.773,4.902-18.922,0c-0.09-0.033-0.504,0.042-0.928,0.129
					c0.104-0.036,0.187-0.09,0.291-0.129H72.572c-13.149,4.902-18.926,0-18.926,0c2.605,14.416,17.306,5.921,25.527,8.268
					c-15.446,0-27.958,12.52-27.958,27.962c0,15.437,12.512,27.956,27.958,27.956c6.23,0,11.968-3.438,16.612-7.44
					c1.756,2.459,3.311,4.286,3.311,4.286s1.544-1.827,3.304-4.286c4.647,4.003,10.381,7.44,16.616,7.44
					c15.438,0,27.957-12.52,27.957-27.956C146.974,46.49,134.455,33.971,119.017,33.971z M111.35,36.058
					c0.129-0.064,0.273-0.125,0.406-0.197C111.623,35.933,111.483,35.989,111.35,36.058z M109.355,37.199
					c0.011-0.008,0.021-0.015,0.033-0.021C109.377,37.185,109.366,37.191,109.355,37.199z"/>
				<g>
					<path fill="#434244" d="M119.017,31.609c-7.8,0-14.852,6.828-19.924,11.976c-5.071-5.147-12.119-11.976-19.919-11.976
						c-15.446,0-27.958,12.515-27.958,27.953c0,15.444,12.512,27.958,27.958,27.958c7.8,0,14.848-5.36,19.919-10.508
						c5.072,5.147,12.124,10.508,19.924,10.508c15.438,0,27.957-12.514,27.957-27.958C146.974,44.124,134.455,31.609,119.017,31.609
						z"/>
					<path fill="#322A32" d="M79.174,84.377c-13.686,0-24.814-11.132-24.814-24.814c0-13.678,11.129-24.808,24.814-24.808
						c13.681,0,24.807,11.13,24.807,24.808C103.981,73.245,92.855,84.377,79.174,84.377z"/>
					<path fill="#FFFFFF" d="M79.174,84.377c-13.686,0-24.814-11.132-24.814-24.814c0-13.678,11.129-24.808,24.814-24.808
						c13.681,0,24.807,11.13,24.807,24.808C103.981,73.245,92.855,84.377,79.174,84.377z"/>
					<path fill="#6BBCFC" d="M79.174,70.192c-5.856,0-10.626-4.773-10.626-10.63c0-5.855,4.77-10.622,10.626-10.622
						c5.856,0,10.622,4.767,10.622,10.622C89.796,65.419,85.03,70.192,79.174,70.192z"/>
					<path fill="#365F7E" d="M79.174,66.64c-3.901,0-7.076-3.171-7.076-7.077c0-3.897,3.175-7.069,7.076-7.069
						c3.898,0,7.073,3.172,7.073,7.069C86.247,63.469,83.072,66.64,79.174,66.64z"/>
					<path fill="#FFFFFF" d="M119.017,84.377c-13.689,0-24.815-11.132-24.815-24.814c0-13.678,11.126-24.808,24.815-24.808
						c13.678,0,24.811,11.13,24.811,24.808C143.827,73.245,132.695,84.377,119.017,84.377z"/>
					<path fill="#434244" d="M53.646,23.341c2.605,14.417,17.306,5.918,25.527,8.269c14.412,4.115,17.591,16.982,17.591,16.982
						S87.158,23.68,74.52,23.658c-0.223,0-1.76-0.388-1.947-0.317C59.423,28.244,53.646,23.341,53.646,23.341z"/>
					<path fill="#434244" d="M142.208,23.341c-2.606,14.417-17.673,6.051-25.898,8.398c-14.409,4.117-17.217,16.853-17.217,16.853
						s9.601-24.912,22.246-24.934c0.223,0,1.756-0.388,1.947-0.317C136.435,28.244,142.208,23.341,142.208,23.341z"/>
					<path fill="#B2DADD" d="M72.572,23.341c16.72,9.693,21.546,11.039,25.701,44.965h2.004
						c3.366-11.457,1.105-37.396,22.371-44.965H72.572z"/>
					<path fill="#ECC971" d="M107.077,68.461c-2.073-3.521-13.894-3.521-15.967,0c-2.254,3.829,7.987,15.916,7.987,15.916
						S109.33,72.29,107.077,68.461z"/>
					<path fill="#6BBCFC" d="M119.017,70.192c-5.856,0-10.623-4.773-10.623-10.63c0-5.855,4.766-10.622,10.623-10.622
						c5.856,0,10.618,4.767,10.618,10.622C129.634,65.419,124.873,70.192,119.017,70.192z"/>
					<path fill="#365F7E" d="M119.017,66.64c-3.906,0-7.081-3.171-7.081-7.077c0-3.897,3.175-7.069,7.081-7.069
						c3.898,0,7.072,3.172,7.072,7.069C126.089,63.469,122.915,66.64,119.017,66.64z"/>
					<path fill="#FFFFFF" d="M78.008,53.713c0,1.546-1.253,2.798-2.804,2.798c-1.544,0-2.808-1.252-2.808-2.798
						c0-1.551,1.264-2.807,2.808-2.807C76.755,50.906,78.008,52.162,78.008,53.713z"/>
					<path fill="#FFFFFF" d="M126.111,53.713c0,1.546-1.256,2.798-2.8,2.798c-1.551,0-2.804-1.252-2.804-2.798
						c0-1.551,1.253-2.807,2.804-2.807C124.854,50.906,126.111,52.162,126.111,53.713z"/>
				</g>
			</g>
		</g>
	</g>
</g>
</svg>
