<?xml version="1.0" encoding="utf-8"?>
<!-- Generator: Adobe Illustrator 16.0.0, SVG Export Plug-In . SVG Version: 6.00 Build 0)  -->
<!DOCTYPE svg PUBLIC "-//W3C//DTD SVG 1.1//EN" "http://www.w3.org/Graphics/SVG/1.1/DTD/svg11.dtd">
<svg version="1.1" id="Capa_1" xmlns="http://www.w3.org/2000/svg" xmlns:xlink="http://www.w3.org/1999/xlink" x="0px" y="0px"
	 width="200px" height="200px" viewBox="0 0 200 200" enable-background="new 0 0 200 200" xml:space="preserve">
<g>
	<circle fill="#E5F5DA" cx="100" cy="100" r="85.379"/>
	<circle fill="#F4FBF0" cx="100" cy="100" r="72.875"/>
	<g>
		<g>
			<g>
				<path fill="#62A698" d="M115.262,36.355h-5.229c-0.363,0-0.658-0.295-0.658-0.658s0.295-0.658,0.658-0.658h5.229
					c0.363,0,0.658,0.295,0.658,0.658S115.625,36.355,115.262,36.355z"/>
			</g>
			<g>
				<path fill="#62A698" d="M112.647,38.97c-0.363,0-0.658-0.295-0.658-0.658v-5.229c0-0.363,0.295-0.658,0.658-0.658
					c0.364,0,0.658,0.295,0.658,0.658v5.229C113.306,38.675,113.012,38.97,112.647,38.97z"/>
			</g>
		</g>
		<g>
			<g>
				<path fill="#62A698" d="M31.332,119.604h-5.228c-0.363,0-0.658-0.295-0.658-0.658c0-0.364,0.295-0.659,0.658-0.659h5.228
					c0.364,0,0.659,0.295,0.659,0.659C31.991,119.31,31.696,119.604,31.332,119.604z"/>
			</g>
			<g>
				<path fill="#62A698" d="M28.719,122.219c-0.363,0-0.658-0.295-0.658-0.658v-5.229c0-0.363,0.295-0.658,0.658-0.658
					s0.658,0.295,0.658,0.658v5.229C29.377,121.924,29.082,122.219,28.719,122.219z"/>
			</g>
		</g>
		<g>
			<g>
				<path fill="#62A698" d="M178.103,119.605h-5.228c-0.364,0-0.658-0.295-0.658-0.659c0-0.363,0.294-0.658,0.658-0.658h5.228
					c0.363,0,0.658,0.295,0.658,0.658C178.761,119.311,178.466,119.605,178.103,119.605z"/>
			</g>
			<g>
				<path fill="#62A698" d="M175.488,122.219c-0.363,0-0.658-0.295-0.658-0.658v-5.229c0-0.363,0.295-0.658,0.658-0.658
					c0.364,0,0.658,0.295,0.658,0.658v5.229C176.146,121.924,175.853,122.219,175.488,122.219z"/>
			</g>
		</g>
		<path fill="#62A698" d="M93.348,42.653h-3.887c-0.364,0-0.658-0.295-0.658-0.658s0.294-0.658,0.658-0.658h3.887
			c0.363,0,0.658,0.295,0.658,0.658S93.711,42.653,93.348,42.653z"/>
		<g>
			<path d="M50.271,89.463c-12.429,0-22.539-10.111-22.539-22.539c0-12.429,10.11-22.539,22.539-22.539s22.54,10.11,22.54,22.539
				C72.811,79.352,62.699,89.463,50.271,89.463z M50.271,46.359c-11.339,0-20.564,9.225-20.564,20.564
				c0,11.339,9.226,20.563,20.564,20.563c11.34,0,20.565-9.225,20.565-20.563C70.836,55.584,61.61,46.359,50.271,46.359z"/>
			<rect x="28.719" y="65.936" width="43.104" height="1.976"/>
			<rect x="49.283" y="45.372" width="1.975" height="43.103"/>
			<path d="M49.265,89.232c-6.671-5.521-10.497-13.652-10.497-22.311c0.001-8.658,3.827-16.787,10.497-22.306l1.259,1.521
				c-6.215,5.142-9.78,12.718-9.78,20.784c0,8.067,3.564,15.645,9.78,20.788L49.265,89.232z"/>
			<path d="M51.355,89.232l-1.259-1.522c6.217-5.144,9.782-12.721,9.782-20.788c0-8.066-3.566-15.642-9.782-20.784l1.259-1.521
				c6.672,5.519,10.498,13.647,10.498,22.306C61.854,75.58,58.028,83.712,51.355,89.232z"/>
			<path d="M49.265,89.232c-6.671-5.521-10.497-13.652-10.497-22.311c0.001-8.658,3.827-16.787,10.497-22.306l1.259,1.521
				c-6.215,5.142-9.78,12.718-9.78,20.784c0,8.067,3.564,15.645,9.78,20.788L49.265,89.232z"/>
			<path d="M51.355,89.232l-1.259-1.522c6.217-5.144,9.782-12.721,9.782-20.788c0-8.066-3.566-15.642-9.782-20.784l1.259-1.521
				c6.672,5.519,10.498,13.647,10.498,22.306C61.854,75.58,58.028,83.712,51.355,89.232z"/>
			<rect x="31.354" y="76.268" width="37.835" height="1.976"/>
			<rect x="31.354" y="55.612" width="37.835" height="1.976"/>
		</g>
		<path fill="#9D95B3" d="M99.835,119.927c3.437,0,6.222,2.785,6.222,6.222c0,3.431-2.785,6.215-6.222,6.215
			s-6.222-2.784-6.222-6.215C93.613,122.712,96.398,119.927,99.835,119.927z"/>
		<path fill="#F8E4A7" d="M85.463,120.954c-0.296,0.836,0.138,1.758,0.968,2.073c0.185,0.06,0.369,0.086,0.553,0.086
			c0.659,0,1.284-0.401,1.521-1.06c0.065-0.185,0.099-0.369,0.099-0.554c0-0.664-0.408-1.29-1.067-1.526
			c-0.178-0.066-0.361-0.099-0.546-0.099C86.325,119.875,85.7,120.289,85.463,120.954z M99.835,146.644
			c-11.317,0-20.495-9.178-20.495-20.495c0-5.78,2.39-11.001,6.234-14.721c0.461-0.448,0.948-0.876,1.449-1.277
			c0.25-0.198,0.507-0.396,0.764-0.586c0.52-0.376,1.06-0.731,1.613-1.061c0.282-0.171,0.56-0.329,0.849-0.48
			c0.23-0.118,0.468-0.237,0.704-0.355c0.073-0.033,0.146-0.065,0.218-0.105c0.276-0.125,0.56-0.25,0.843-0.369
			c0.303-0.124,0.605-0.243,0.915-0.349c0.31-0.111,0.619-0.217,0.936-0.31c0.276-0.085,0.559-0.164,0.849-0.243
			c0.053-0.014,0.112-0.026,0.171-0.04c0.297-0.078,0.6-0.145,0.902-0.203c0.329-0.066,0.658-0.126,0.994-0.172
			c0.289-0.046,0.579-0.086,0.876-0.111c0.099-0.014,0.204-0.026,0.303-0.033c0.27-0.026,0.546-0.046,0.822-0.06
			c0.007,0,0.014,0,0.021,0c0.342-0.02,0.685-0.026,1.033-0.026s0.691,0.007,1.034,0.026c0.007,0,0.013,0,0.02,0
			c0.276,0.014,0.56,0.033,0.836,0.06c0.092,0.007,0.191,0.02,0.283,0.026c0.296,0.032,0.593,0.072,0.882,0.118
			c0.336,0.046,0.666,0.105,0.995,0.172c0.303,0.059,0.605,0.125,0.901,0.203c0.06,0.014,0.119,0.026,0.172,0.04
			c0.928,0.243,1.829,0.54,2.698,0.901c0.303,0.126,0.6,0.258,0.896,0.396c0.296,0.139,0.585,0.283,0.868,0.435
			c1.719,0.915,3.285,2.061,4.675,3.404h0.006c3.845,3.72,6.235,8.94,6.235,14.721C120.337,137.466,111.159,146.644,99.835,146.644z
			 M111.548,135.958c0.256-0.303,0.375-0.671,0.375-1.033c0-0.461-0.19-0.922-0.579-1.237c-0.304-0.257-0.672-0.375-1.034-0.375
			c-0.467,0-0.928,0.189-1.244,0.578c-0.565,0.679-0.48,1.705,0.198,2.278c0.309,0.243,0.677,0.376,1.046,0.376
			C110.771,136.545,111.225,136.347,111.548,135.958z M111.884,117.326c0-0.368-0.125-0.744-0.375-1.047
			c-0.316-0.381-0.777-0.579-1.239-0.579c-0.368,0-0.736,0.125-1.04,0.389c-0.691,0.579-0.763,1.6-0.197,2.284
			c0.329,0.368,0.777,0.573,1.245,0.573c0.368,0,0.73-0.132,1.033-0.389C111.692,118.234,111.884,117.781,111.884,117.326z
			 M106.057,126.148c0-3.437-2.785-6.222-6.222-6.222s-6.222,2.785-6.222,6.222c0,3.431,2.785,6.215,6.222,6.215
			S106.057,129.579,106.057,126.148z M103.838,139.605c0-0.092-0.014-0.185-0.026-0.276c-0.138-0.797-0.822-1.343-1.593-1.343
			c-0.092,0-0.191,0.013-0.283,0.026c-0.875,0.151-1.469,0.987-1.316,1.877c0.145,0.776,0.829,1.335,1.6,1.335
			c0.098,0,0.19-0.013,0.276-0.032C103.291,141.055,103.838,140.369,103.838,139.605z M103.759,112.962
			c0.014-0.093,0.026-0.185,0.026-0.277c0-0.783-0.56-1.461-1.343-1.6c-0.092-0.013-0.185-0.026-0.276-0.026
			c-0.776,0-1.462,0.56-1.587,1.336c-0.151,0.89,0.429,1.732,1.316,1.884c0.092,0.006,0.185,0.02,0.271,0.02
			C102.942,114.298,103.627,113.738,103.759,112.962z M94.417,138.797c0.151-0.258,0.224-0.534,0.224-0.811
			c0-0.566-0.296-1.105-0.816-1.402c-0.25-0.145-0.527-0.211-0.797-0.211c-0.56,0-1.105,0.283-1.402,0.803
			c-0.454,0.784-0.185,1.771,0.593,2.213c0.25,0.15,0.526,0.217,0.797,0.217C93.574,139.605,94.127,139.315,94.417,138.797z
			 M94.595,114.324c0-0.276-0.072-0.56-0.224-0.816c-0.297-0.514-0.843-0.804-1.403-0.804c-0.276,0-0.553,0.073-0.81,0.224
			c-0.77,0.455-1.033,1.442-0.593,2.213c0.304,0.514,0.844,0.81,1.409,0.81c0.276,0,0.56-0.079,0.816-0.23
			C94.305,115.424,94.595,114.884,94.595,114.324z M88.616,130.843c0-0.185-0.032-0.375-0.099-0.56
			c-0.236-0.651-0.85-1.061-1.508-1.061c-0.19,0-0.382,0.033-0.565,0.105c-0.844,0.297-1.271,1.225-0.962,2.068
			c0.237,0.658,0.856,1.072,1.521,1.072c0.185,0,0.369-0.039,0.554-0.111C88.215,132.12,88.616,131.508,88.616,130.843z"/>
		<g>
			<path fill="#F3D16B" d="M114.102,111.428h-0.006c-1.39-1.344-2.956-2.489-4.675-3.404c-0.283-0.151-0.572-0.296-0.868-0.435
				c-0.297-0.138-0.594-0.27-0.896-0.396c-0.869-0.361-1.771-0.658-2.698-0.901c-0.053-0.014-0.112-0.026-0.172-0.04
				c-0.296-0.078-0.599-0.145-0.901-0.203c-0.329-0.066-0.659-0.126-0.995-0.172c-0.289-0.046-0.586-0.086-0.882-0.118
				c-0.092-0.007-0.191-0.02-0.283-0.026c-0.276-0.026-0.56-0.046-0.836-0.06c-0.007,0-0.013,0-0.02,0
				c-0.343-0.02-0.686-0.026-1.034-0.026s-0.691,0.007-1.033,0.026c-0.007,0-0.014,0-0.021,0c-0.276,0.014-0.553,0.033-0.822,0.06
				c-0.099,0.007-0.204,0.02-0.303,0.033c-0.297,0.025-0.587,0.065-0.876,0.111c-0.08,0.011-0.157,0.029-0.237,0.041
				c0.254,0.039,0.507,0.08,0.758,0.131c0.303,0.059,0.605,0.125,0.901,0.203c0.06,0.014,0.119,0.026,0.172,0.04
				c0.928,0.243,1.829,0.54,2.699,0.901c0.303,0.126,0.599,0.258,0.896,0.396c0.296,0.139,0.585,0.283,0.868,0.435
				c1.719,0.915,3.286,2.061,4.675,3.404h0.007c1.354,1.309,2.521,2.808,3.474,4.447c0.192,0.098,0.371,0.229,0.517,0.404
				c0.25,0.303,0.375,0.679,0.375,1.047c0,0.073-0.014,0.146-0.023,0.22c1.211,2.615,1.893,5.528,1.893,8.603
				c0,3.041-0.668,5.925-1.856,8.52c0.013,0.085,0.026,0.171,0.026,0.257c0,0.362-0.119,0.73-0.375,1.033
				c-0.152,0.184-0.336,0.32-0.533,0.418c-3.02,5.229-8.278,9.001-14.471,10.001c1.072,0.173,2.171,0.267,3.291,0.267
				c11.324,0,20.502-9.178,20.502-20.495C120.337,120.368,117.946,115.147,114.102,111.428z"/>
		</g>
		<rect x="58.838" y="153.326" fill="#817A93" width="81.993" height="12.588"/>
		<rect x="134.248" y="153.326" fill="#655F73" width="6.583" height="12.588"/>
		<path fill="#817A93" d="M72.961,111.428v8.703h-0.185H51.023v-6.004v-3.661c0-6.057,4.911-10.962,10.969-10.962
			c0.21,0,0.414,0.021,0.625,0.026v-0.026h21.088h53.223h0.494v0.007c0.046-0.007,0.092-0.007,0.131-0.007
			c6.058,0,10.969,4.905,10.969,10.962v3.661v6.004h-21.937v-8.703h-12.483c-1.389-1.35-2.962-2.496-4.681-3.404
			c-0.283-0.158-0.572-0.303-0.868-0.435c-0.291-0.146-0.594-0.276-0.896-0.396c-0.869-0.361-1.771-0.664-2.698-0.901
			c-0.053-0.014-0.112-0.026-0.172-0.04c-0.296-0.078-0.599-0.145-0.901-0.203c-0.329-0.066-0.659-0.126-0.995-0.172
			c-0.289-0.046-0.586-0.086-0.882-0.118c-0.092-0.007-0.191-0.02-0.283-0.026c-0.276-0.026-0.553-0.046-0.836-0.06
			c-0.007,0-0.013,0-0.02,0c-0.343-0.02-0.686-0.026-1.034-0.026s-0.691,0.007-1.033,0.026c-0.007,0-0.014,0-0.021,0
			c-0.276,0.014-0.553,0.033-0.822,0.06c-0.099,0.007-0.204,0.02-0.303,0.033c-0.297,0.025-0.587,0.065-0.876,0.111
			c-0.336,0.046-0.665,0.105-0.994,0.172c-0.303,0.059-0.605,0.125-0.902,0.203c-0.059,0.014-0.118,0.026-0.171,0.04
			c-0.283,0.072-0.572,0.151-0.849,0.243c-0.316,0.093-0.626,0.191-0.936,0.31c-0.31,0.105-0.612,0.225-0.915,0.349
			c-0.283,0.119-0.566,0.237-0.843,0.369c-0.072,0.04-0.145,0.072-0.218,0.105c-0.236,0.111-0.474,0.23-0.704,0.355
			c-0.289,0.151-0.572,0.31-0.849,0.48c-0.561,0.322-1.094,0.678-1.613,1.061c-0.264,0.184-0.514,0.381-0.764,0.586
			c-0.501,0.395-0.988,0.823-1.449,1.277h-1.869H72.961z"/>
		<g>
			<path fill="#655F73" d="M96.306,105.877c-0.289-0.046-0.585-0.086-0.882-0.118c-0.092-0.007-0.19-0.02-0.283-0.026
				c-0.276-0.026-0.553-0.046-0.836-0.06c-0.007,0-0.013,0-0.02,0c-0.343-0.02-0.685-0.026-1.034-0.026
				c-0.349,0-0.69,0.007-1.033,0.026c-0.007,0-0.013,0-0.02,0c-0.276,0.014-0.553,0.033-0.823,0.06
				c-0.099,0.007-0.204,0.02-0.303,0.033c-0.296,0.025-0.586,0.065-0.876,0.111c-0.335,0.046-0.665,0.105-0.994,0.172
				c-0.303,0.059-0.605,0.125-0.901,0.203c-0.06,0.014-0.119,0.026-0.171,0.04c-0.284,0.072-0.573,0.151-0.85,0.243
				c-0.316,0.093-0.626,0.191-0.936,0.31c-0.31,0.105-0.612,0.225-0.915,0.349c-0.283,0.119-0.566,0.237-0.843,0.369
				c-0.072,0.04-0.145,0.072-0.217,0.105c-0.237,0.111-0.475,0.23-0.705,0.355c-0.289,0.151-0.572,0.31-0.849,0.48
				c-0.56,0.322-1.093,0.678-1.613,1.061c-0.264,0.184-0.514,0.381-0.764,0.586c-0.501,0.395-0.987,0.823-1.448,1.277h4.714h1.869
				c0.461-0.454,0.948-0.883,1.449-1.277c0.25-0.205,0.5-0.402,0.764-0.586c0.52-0.383,1.053-0.738,1.613-1.061
				c0.276-0.171,0.56-0.329,0.849-0.48c0.23-0.125,0.468-0.244,0.704-0.355c0.073-0.033,0.146-0.065,0.218-0.105
				c0.276-0.132,0.56-0.25,0.843-0.369c0.303-0.124,0.605-0.243,0.915-0.349c0.31-0.118,0.619-0.217,0.936-0.31
				c0.276-0.092,0.565-0.171,0.849-0.243c0.053-0.014,0.112-0.026,0.171-0.04c0.297-0.078,0.6-0.145,0.902-0.203
				c0.251-0.051,0.504-0.092,0.757-0.131C96.464,105.906,96.386,105.888,96.306,105.877z"/>
			<path fill="#655F73" d="M137.553,99.504c-0.039,0-0.085,0-0.131,0.007v-0.007h-0.494h-5.958c6.057,0,10.968,4.905,10.968,10.962
				v3.661v6.004h6.584v-6.004v-3.661C148.521,104.409,143.61,99.504,137.553,99.504z"/>
			<path fill="#817A93" d="M130.838,99.511c0.046-0.007,0.093-0.007,0.132-0.007h-0.132V99.511z"/>
		</g>
		<path fill="#9D95B3" d="M79.34,126.148c0,11.317,9.178,20.495,20.495,20.495c11.324,0,20.502-9.178,20.502-20.495
			c3.667,2.159,8.789,6.754,12.996,11.91c4.095,5.011,7.321,10.561,7.492,14.912c0.006,0.118,0.006,0.237,0.006,0.355H58.838
			C58.838,145.057,71.723,129.94,79.34,126.148z"/>
		<g>
			<path fill="#817A93" d="M140.825,152.971c-0.171-4.352-3.397-9.901-7.492-14.912c-4.207-5.156-9.329-9.751-12.996-11.91
				c0,1.588-0.187,3.133-0.528,4.616c2.339,2.108,4.763,4.624,6.94,7.294c4.095,5.011,7.321,10.561,7.492,14.912
				c0.007,0.118,0.007,0.237,0.007,0.355h6.583C140.831,153.208,140.831,153.089,140.825,152.971z"/>
			<path fill="#817A93" d="M93.251,146.644c1.122,0,2.221-0.094,3.293-0.267c-9.753-1.576-17.204-10.031-17.204-20.229
				c-1.816,0.904-3.934,2.458-6.104,4.404C75.253,139.753,83.446,146.644,93.251,146.644z"/>
		</g>
		<path d="M111.923,134.925c0,0.362-0.119,0.73-0.375,1.033c-0.323,0.389-0.777,0.587-1.238,0.587c-0.369,0-0.737-0.133-1.046-0.376
			c-0.679-0.573-0.764-1.6-0.198-2.278c0.316-0.389,0.777-0.578,1.244-0.578c0.362,0,0.73,0.118,1.034,0.375
			C111.732,134.003,111.923,134.464,111.923,134.925z"/>
		<path d="M111.509,116.279c0.25,0.303,0.375,0.679,0.375,1.047c0,0.455-0.191,0.908-0.573,1.231
			c-0.303,0.257-0.665,0.389-1.033,0.389c-0.468,0-0.916-0.205-1.245-0.573c-0.565-0.685-0.494-1.705,0.197-2.284
			c0.304-0.264,0.672-0.389,1.04-0.389C110.731,115.7,111.192,115.898,111.509,116.279z"/>
		<path d="M103.812,139.329c0.013,0.092,0.026,0.185,0.026,0.276c0,0.764-0.547,1.449-1.343,1.587
			c-0.086,0.02-0.179,0.032-0.276,0.032c-0.771,0-1.455-0.559-1.6-1.335c-0.152-0.89,0.441-1.726,1.316-1.877
			c0.092-0.014,0.191-0.026,0.283-0.026C102.989,137.986,103.674,138.532,103.812,139.329z"/>
		<path d="M103.785,112.685c0,0.093-0.013,0.185-0.026,0.277c-0.132,0.776-0.816,1.336-1.593,1.336c-0.086,0-0.179-0.014-0.271-0.02
			c-0.888-0.151-1.468-0.994-1.316-1.884c0.125-0.776,0.811-1.336,1.587-1.336c0.092,0,0.185,0.014,0.276,0.026
			C103.226,111.224,103.785,111.901,103.785,112.685z"/>
		<path d="M94.641,137.986c0,0.276-0.072,0.553-0.224,0.811c-0.29,0.519-0.843,0.809-1.402,0.809c-0.271,0-0.547-0.066-0.797-0.217
			c-0.777-0.441-1.047-1.429-0.593-2.213c0.297-0.52,0.843-0.803,1.402-0.803c0.27,0,0.547,0.066,0.797,0.211
			C94.345,136.881,94.641,137.42,94.641,137.986z"/>
		<path d="M94.371,113.508c0.151,0.257,0.224,0.54,0.224,0.816c0,0.56-0.29,1.1-0.804,1.396c-0.257,0.151-0.54,0.23-0.816,0.23
			c-0.565,0-1.105-0.296-1.409-0.81c-0.44-0.771-0.177-1.758,0.593-2.213c0.257-0.15,0.533-0.224,0.81-0.224
			C93.528,112.704,94.074,112.994,94.371,113.508z"/>
		<path d="M88.518,130.283c0.066,0.185,0.099,0.375,0.099,0.56c0,0.665-0.401,1.277-1.06,1.515
			c-0.185,0.072-0.369,0.111-0.554,0.111c-0.664,0-1.283-0.414-1.521-1.072c-0.31-0.844,0.118-1.771,0.962-2.068
			c0.184-0.072,0.375-0.105,0.565-0.105C87.668,129.223,88.281,129.632,88.518,130.283z"/>
		<path d="M88.604,121.5c0,0.185-0.033,0.369-0.099,0.554c-0.237,0.658-0.862,1.06-1.521,1.06c-0.184,0-0.368-0.026-0.553-0.086
			c-0.83-0.315-1.264-1.237-0.968-2.073c0.237-0.665,0.862-1.079,1.527-1.079c0.185,0,0.368,0.032,0.546,0.099
			C88.195,120.21,88.604,120.836,88.604,121.5z"/>
		<path d="M121.324,126.148h-1.976c0-5.334-2.107-10.31-5.934-14.012c-1.326-1.288-2.824-2.378-4.456-3.24
			c-0.276-0.154-0.542-0.287-0.808-0.404c-0.286-0.143-0.56-0.264-0.854-0.379c-0.853-0.354-1.715-0.643-2.584-0.864l0.489-1.914
			c0.961,0.246,1.914,0.564,2.834,0.947c0.332,0.13,0.66,0.274,0.958,0.423c0.279,0.123,0.599,0.283,0.909,0.457
			c1.776,0.938,3.428,2.139,4.887,3.557C119.003,114.795,121.324,120.275,121.324,126.148z"/>
		<path d="M104.532,107.207c-0.275-0.073-0.556-0.134-0.837-0.189c-0.314-0.063-0.624-0.119-0.939-0.162
			c-0.296-0.047-0.576-0.084-0.858-0.115l0.22-1.963c0.312,0.034,0.623,0.076,0.928,0.124c0.336,0.046,0.685,0.109,1.034,0.179
			c0.319,0.063,0.644,0.134,0.961,0.218L104.532,107.207z"/>
		<path d="M101.633,106.715c-0.262-0.023-0.522-0.043-0.79-0.056l0.091-1.973c0.3,0.015,0.592,0.035,0.884,0.063L101.633,106.715z"
			/>
		<path d="M100.813,106.659c-0.647-0.037-1.308-0.037-1.954,0l-0.113-1.972c0.723-0.042,1.457-0.042,2.181,0L100.813,106.659z"/>
		<path d="M98.054,106.715l-0.189-1.966c0.285-0.027,0.578-0.048,0.87-0.063l0.094,1.973
			C98.568,106.672,98.308,106.691,98.054,106.715z"/>
		<path d="M95.138,107.207l-0.507-1.909c0.317-0.084,0.642-0.155,0.966-0.219c0.345-0.068,0.693-0.132,1.05-0.181
			c0.291-0.046,0.604-0.089,0.922-0.117l0.175,1.968c-0.273,0.024-0.541,0.061-0.808,0.104c-0.337,0.046-0.646,0.103-0.955,0.164
			C95.694,107.073,95.413,107.134,95.138,107.207z"/>
		<path d="M91.596,108.454l-0.85-1.783c0.285-0.136,0.577-0.259,0.87-0.381c0.343-0.143,0.665-0.268,0.994-0.38
			c0.3-0.115,0.635-0.223,0.977-0.322c0.263-0.089,0.575-0.175,0.881-0.253l0.49,1.914c-0.261,0.066-0.527,0.139-0.781,0.224
			c-0.326,0.096-0.61,0.186-0.895,0.295c-0.325,0.11-0.608,0.223-0.892,0.339C92.116,108.222,91.853,108.332,91.596,108.454z"/>
		<path d="M80.327,126.148h-1.975c0-5.873,2.321-11.354,6.535-15.431c0.474-0.468,0.989-0.921,1.524-1.343
			c0.256-0.21,0.525-0.422,0.809-0.62c0.568-0.417,1.125-0.783,1.686-1.106c0.271-0.168,0.574-0.338,0.886-0.5
			c0.232-0.127,0.486-0.254,0.74-0.373l0.843,1.786c-0.22,0.104-0.439,0.213-0.654,0.33c-0.282,0.147-0.545,0.294-0.801,0.452
			c-0.524,0.303-1.021,0.63-1.549,1.017c-0.262,0.184-0.492,0.366-0.724,0.555c-0.491,0.388-0.951,0.793-1.38,1.216
			C82.435,115.839,80.327,120.814,80.327,126.148z"/>
		<path d="M140.831,166.902H58.838c-0.545,0-0.987-0.443-0.987-0.988v-12.588c0-8.895,13.318-24.213,21.049-28.063
			c0.307-0.152,0.671-0.135,0.96,0.045c0.291,0.18,0.468,0.497,0.468,0.84c0,10.757,8.751,19.508,19.508,19.508
			c10.761,0,19.514-8.751,19.514-19.508c0-0.354,0.189-0.682,0.498-0.858c0.308-0.176,0.687-0.172,0.991,0.007
			c3.925,2.313,9.131,7.076,13.26,12.137c2.788,3.411,7.496,9.961,7.714,15.498c0.007,0.121,0.008,0.258,0.008,0.395v12.588
			C141.819,166.459,141.377,166.902,140.831,166.902z M59.826,164.927h80.018v-11.601c0-0.101,0.001-0.201-0.005-0.303
			c-0.146-3.692-2.728-8.78-7.271-14.34c-3.509-4.3-7.791-8.36-11.315-10.778c-0.897,11.028-10.16,19.727-21.418,19.727
			c-11.29,0-20.574-8.757-21.42-19.834c-7.697,4.765-18.589,18.526-18.589,25.528V164.927z"/>
		<path d="M99.835,133.351c-3.976,0-7.209-3.23-7.209-7.202c0-3.975,3.233-7.209,7.209-7.209s7.21,3.234,7.21,7.209
			C107.045,130.12,103.811,133.351,99.835,133.351z M99.835,120.915c-2.886,0-5.234,2.348-5.234,5.233
			c0,2.882,2.349,5.228,5.234,5.228s5.234-2.346,5.234-5.228C105.069,123.263,102.721,120.915,99.835,120.915z"/>
		<path d="M73.764,120.315h-1.976v-9.665c0-1.607-0.37-3.139-1.101-4.55l1.754-0.908c0.878,1.695,1.322,3.531,1.322,5.458V120.315z"
			/>
		<rect x="109.783" y="125.16" width="10.554" height="1.976"/>
		<rect x="51.023" y="113.139" width="12.766" height="1.976"/>
		<path d="M127.572,111.428h-1.976v-0.962c0-1.912,0.444-3.747,1.32-5.454l1.758,0.902c-0.731,1.425-1.103,2.956-1.103,4.552
			V111.428z"/>
		<path d="M148.521,121.118h-21.937c-0.546,0-0.988-0.442-0.988-0.987v-7.716h-11.495c-0.256,0-0.509-0.1-0.692-0.277
			c-1.332-1.288-2.83-2.379-4.452-3.242c-0.27-0.145-0.542-0.281-0.822-0.411c-0.282-0.132-0.566-0.258-0.854-0.378
			c-0.797-0.331-1.66-0.62-2.573-0.859l-0.134-0.03c-0.316-0.083-0.597-0.144-0.878-0.199c-0.314-0.063-0.624-0.119-0.939-0.162
			c-0.296-0.047-0.576-0.084-0.858-0.115l-0.245-0.023c-0.282-0.025-0.55-0.045-0.811-0.058c-0.706-0.038-1.336-0.037-1.983,0
			c-0.02,0.001-0.058,0.001-0.077,0.001c-0.213,0.012-0.474,0.031-0.728,0.055c-0.105,0.008-0.188,0.019-0.267,0.029
			c-0.317,0.029-0.585,0.065-0.852,0.108c-0.337,0.046-0.646,0.103-0.955,0.164c-0.286,0.057-0.567,0.117-0.843,0.19l-0.184,0.042
			c-0.261,0.071-0.532,0.147-0.799,0.229c-0.311,0.092-0.601,0.189-0.89,0.295c-0.309,0.104-0.592,0.217-0.875,0.333
			c-0.26,0.108-0.524,0.226-0.783,0.343c-0.079,0.041-0.159,0.078-0.239,0.115c-0.207,0.104-0.44,0.221-0.667,0.337
			c-0.266,0.14-0.524,0.287-0.79,0.447c-0.528,0.315-1.047,0.655-1.546,1.017c-0.238,0.177-0.487,0.368-0.729,0.56
			c-0.479,0.385-0.943,0.794-1.373,1.211c-0.185,0.179-0.432,0.279-0.688,0.279H73.948v7.716c0,0.545-0.442,0.987-0.987,0.987
			H51.023c-0.546,0-0.988-0.442-0.988-0.987v-9.665c0-6.589,5.364-11.949,11.957-11.949c0.144,0,0.285,0.008,0.427,0.016
			l0.021,0.001c0.058-0.011,0.116-0.017,0.177-0.017h74.805c0.017,0,0.032,0,0.048,0.001c0.029-0.001,0.058-0.001,0.083-0.001
			c6.593,0,11.956,5.36,11.956,11.949v9.665C149.509,120.676,149.067,121.118,148.521,121.118z M127.572,119.144h19.962v-8.678
			c0-5.5-4.478-9.975-9.981-9.975c-0.094,0.014-0.188,0.014-0.279,0H62.831c-0.079,0.02-0.161,0.026-0.244,0.026
			c-0.095-0.003-0.188-0.008-0.28-0.014c-0.104-0.006-0.209-0.013-0.314-0.013c-5.504,0-9.981,4.475-9.981,9.975v8.678h19.962
			v-7.716c0-0.546,0.442-0.988,0.988-0.988H85.18c0.39-0.363,0.801-0.719,1.226-1.06c0.264-0.208,0.528-0.411,0.793-0.608
			c0.557-0.402,1.124-0.775,1.696-1.116c0.295-0.178,0.589-0.346,0.897-0.507c0.239-0.123,0.479-0.244,0.721-0.363
			c0.086-0.041,0.136-0.063,0.185-0.089c0.021-0.013,0.044-0.023,0.066-0.033c0.285-0.129,0.577-0.258,0.868-0.38
			c0.327-0.136,0.649-0.261,0.979-0.373c0.312-0.113,0.641-0.225,0.977-0.322c0.272-0.085,0.565-0.167,0.866-0.249l0.208-0.049
			c0.287-0.076,0.611-0.147,0.936-0.211c0.345-0.068,0.693-0.132,1.05-0.181c0.291-0.046,0.604-0.089,0.922-0.117
			c0.076-0.011,0.203-0.026,0.323-0.034c0.258-0.025,0.551-0.046,0.843-0.061c0.017-0.001,0.052-0.001,0.067-0.001
			c0.608-0.038,1.4-0.04,2.124,0.002c0.302,0.014,0.601,0.034,0.892,0.062l0.259,0.024c0.353,0.038,0.664,0.08,0.969,0.128
			c0.336,0.046,0.685,0.109,1.034,0.179c0.319,0.063,0.644,0.134,0.961,0.218l0.157,0.036c1.012,0.265,1.962,0.584,2.839,0.948
			c0.314,0.13,0.623,0.268,0.934,0.412c0.313,0.146,0.619,0.299,0.918,0.459c1.665,0.886,3.212,1.991,4.602,3.286h12.096
			c0.545,0,0.987,0.442,0.987,0.988V119.144z"/>
		<rect x="135.756" y="113.139" width="12.766" height="1.976"/>
		<rect x="58.838" y="152.339" width="81.993" height="1.975"/>
		<path d="M153.894,153.958h-13.063v-1.975h13.063c1.997,0,3.622-1.625,3.622-3.621v-3.41c0-2.001-1.625-3.628-3.622-3.628
			l-6.15-0.006c-3.086-0.009-5.595-2.522-5.595-5.604v-3.681c0-3.085,2.51-5.596,5.596-5.596h6.149c1.997,0,3.622-1.624,3.622-3.621
			v-4.082c0-1.997-1.625-3.621-3.622-3.621h-5.372v-1.976h5.372c3.086,0,5.597,2.511,5.597,5.597v4.082
			c0,3.085-2.511,5.596-5.597,5.596h-6.149c-1.996,0-3.621,1.625-3.621,3.621v3.681c0,1.994,1.626,3.622,3.624,3.628l6.148,0.007
			c3.084,0,5.595,2.513,5.595,5.603v3.41C159.49,151.447,156.979,153.958,153.894,153.958z"/>
		<g>
			<g id="XMLID_2_">
				<g>
					<polygon fill="#FFFFFF" points="165.087,45.609 157.857,45.609 157.857,38.381 					"/>
					<polygon fill="#FFFFFF" points="165.087,51.989 165.087,62.326 153.216,72.221 147.205,77.231 141.194,72.221 129.198,62.22 
						129.198,52.101 129.198,38.381 157.857,38.381 157.857,45.609 165.087,45.609 					"/>
					<polygon fill="#6CB8A7" points="129.198,52.101 129.198,62.22 123.128,57.157 					"/>
					<polygon fill="#6CB8A7" points="171.281,57.157 165.087,62.326 165.087,51.989 					"/>
					<polygon fill="#DCBE62" points="141.187,72.228 136.02,76.521 123.128,87.238 123.128,57.217 					"/>
					<polygon fill="#DCBE62" points="171.281,57.21 171.281,87.238 157.219,75.546 153.216,72.221 					"/>
					<polygon fill="#F5D982" points="171.281,87.238 123.128,87.238 136.02,76.521 141.187,72.228 141.194,72.221 147.205,77.231 
						153.216,72.221 157.219,75.546 					"/>
				</g>
				<g>
					<path d="M171.281,88.227h-48.153c-0.545,0-0.987-0.442-0.987-0.988V57.217c0-0.383,0.222-0.731,0.568-0.895
						c0.345-0.162,0.756-0.11,1.051,0.135l18.059,15.012l-1.263,1.519l-16.44-13.666v26.93h46.179V59.314L153.847,72.98l-1.263-1.52
						l18.065-15.011c0.297-0.245,0.705-0.297,1.052-0.134c0.347,0.162,0.567,0.511,0.567,0.894v30.028
						C172.269,87.784,171.827,88.227,171.281,88.227z"/>
					<path d="M165.719,63.084l-1.265-1.517l5.285-4.41l-5.285-4.409l1.265-1.518l6.195,5.169c0.225,0.188,0.354,0.465,0.354,0.758
						s-0.13,0.571-0.354,0.759L165.719,63.084z"/>
					<path d="M128.565,62.979l-6.069-5.063c-0.226-0.188-0.355-0.466-0.355-0.759s0.131-0.571,0.355-0.759l6.07-5.057l1.264,1.518
						l-5.159,4.299l5.16,4.304L128.565,62.979z"/>
					<rect x="135.598" y="50.698" fill="#62A698" width="23.089" height="1.976"/>
					<rect x="135.598" y="55.643" fill="#62A698" width="23.089" height="1.976"/>
					<rect x="135.598" y="60.588" fill="#62A698" width="16.341" height="1.975"/>
					<rect x="135.598" y="44.214" fill="#62A698" width="7.381" height="1.975"/>
					<path d="M165.087,46.597h-7.229c-0.546,0-0.987-0.441-0.987-0.987v-7.229h1.975v6.241h6.242V46.597z"/>
					<path d="M147.205,78.219c-0.225,0-0.449-0.076-0.632-0.229l-18.008-15.012c-0.225-0.188-0.354-0.465-0.354-0.759V38.381
						c0-0.546,0.442-0.988,0.987-0.988h28.659c0.261,0,0.513,0.104,0.698,0.29l7.229,7.229c0.186,0.186,0.29,0.437,0.29,0.698
						v16.717c0,0.293-0.13,0.57-0.355,0.758L147.837,77.99C147.654,78.143,147.43,78.219,147.205,78.219z M130.186,61.758
						l17.02,14.188l16.894-14.082V46.019l-6.65-6.65h-27.263V61.758z"/>
					<path d="M136.65,77.28l-1.262-1.52l5.167-4.293l0.589,0.709l0.732,0.759c-0.018,0.016-0.041,0.037-0.06,0.052L136.65,77.28z"/>
					
						<rect x="128.586" y="73.497" transform="matrix(0.6394 0.7689 -0.7689 0.6394 109.6877 -70.1013)" width="1.975" height="16.765"/>
					
						<rect x="155.105" y="80.406" transform="matrix(0.7689 0.6394 -0.6394 0.7689 90.0027 -86.2084)" width="18.288" height="1.974"/>
					<rect x="152.615" y="72.896" transform="matrix(0.7692 0.639 -0.639 0.7692 83.0313 -82.1306)" width="5.204" height="1.975"/>
				</g>
			</g>
		</g>
		<g>
			<path fill="#817A93" d="M100.146,77.08c-1.058,2.051-3.14,3.268-5.351,3.268c-4.612,0.032-6.76-3.652-6.343-7.944
				c0.513-5.286,4.485-8.106,9.194-8.042c2.051,0.032,4.742,1.026,6.248,2.371l-0.802,9.194c-0.128,1.313-0.031,2.146,0.77,2.146
				c1.922,0.033,3.108-3.299,3.331-5.798c0.545-6.663-3.14-10.796-9.803-10.796c-6.504,0-11.47,4.453-12.078,10.925
				c-0.769,8.521,5.414,12.813,13.264,9.739l-0.192,2.05c-8.875,3.14-16.083-2.019-15.186-11.789
				c0.704-7.689,6.695-13.071,14.384-13.071c7.818,0,12.495,5.094,11.758,12.942c-0.448,4.646-3.3,8.266-6.76,8.266
				c-1.89,0-2.595-1.186-2.466-2.979L100.146,77.08z M100.402,68.367c-0.993-0.77-2.179-1.154-3.428-1.122
				c-2.467,0.031-4.741,1.89-5.029,5.158c-0.225,2.595,0.801,4.901,3.62,4.901c2.723,0,4.229-2.403,4.453-4.838L100.402,68.367z"/>
		</g>
		<circle fill="#6CB8A7" cx="64.486" cy="46.843" r="13.759"/>
		<g>
			<path fill="#FFFFFF" d="M55.18,50.211l3.752-4.845c0.146-0.195,0.244-0.377,0.298-0.545c0.034-0.159,0.053-0.309,0.053-0.449
				c0-0.372-0.112-0.696-0.337-0.974c-0.233-0.276-0.563-0.42-0.99-0.429c-0.378,0-0.692,0.125-0.943,0.374
				c-0.26,0.25-0.413,0.602-0.462,1.056h-1.37c0.034-0.823,0.303-1.503,0.803-2.041c0.505-0.524,1.127-0.791,1.864-0.8
				c0.825,0.009,1.495,0.28,2.009,0.814c0.522,0.531,0.788,1.204,0.797,2.02c0,0.652-0.193,1.232-0.579,1.74l-3.088,3.998h3.667
				v1.412H55.18V50.211z"/>
			<path fill="#FFFFFF" d="M61.207,48.738l3.205-7.099h1.529l-3.24,7.099h2.505v-2.853h1.371v2.853h0.77v1.33h-0.77v1.475h-1.371
				v-1.474l-3.999-0.001V48.738z"/>
			<path fill="#FFFFFF" d="M67.989,41.64h1.371v3.6h0.026c0.451-0.557,1.043-0.835,1.774-0.835c0.565,0,1.082,0.206,1.552,0.617
				c0.464,0.417,0.707,1.028,0.729,1.834v4.688h-1.371V47.34c0-0.494-0.127-0.871-0.382-1.129c-0.25-0.264-0.572-0.395-0.967-0.395
				c-0.396,0-0.72,0.131-0.975,0.395c-0.259,0.258-0.388,0.635-0.388,1.129v4.203h-1.371V41.64z"/>
		</g>
		<rect x="31.815" y="164.926" width="137.685" height="1.975"/>
		<path fill="#62A698" d="M100.555,47.501h-9.602c-0.363,0-0.658-0.294-0.658-0.658c0-0.363,0.295-0.658,0.658-0.658h9.602
			c0.363,0,0.658,0.295,0.658,0.658C101.213,47.207,100.918,47.501,100.555,47.501z"/>
		<path fill="#62A698" d="M175.933,96.729h-12.729c-0.364,0-0.658-0.295-0.658-0.659c0-0.363,0.294-0.658,0.658-0.658h12.729
			c0.364,0,0.658,0.295,0.658,0.658C176.591,96.434,176.297,96.729,175.933,96.729z"/>
		<path fill="#62A698" d="M181.857,99.143h-10.576c-0.363,0-0.658-0.295-0.658-0.658c0-0.364,0.295-0.659,0.658-0.659h10.576
			c0.364,0,0.658,0.295,0.658,0.659C182.516,98.848,182.222,99.143,181.857,99.143z"/>
		<path fill="#62A698" d="M42.282,96.069h-7.681c-0.363,0-0.658-0.294-0.658-0.658c0-0.363,0.295-0.658,0.658-0.658h7.681
			c0.363,0,0.658,0.295,0.658,0.658C42.94,95.775,42.646,96.069,42.282,96.069z"/>
		<path fill="#62A698" d="M36.796,100.162h-9.671c-0.363,0-0.658-0.295-0.658-0.658s0.295-0.658,0.658-0.658h9.671
			c0.363,0,0.658,0.295,0.658,0.658S37.159,100.162,36.796,100.162z"/>
		<path fill="#62A698" d="M51.023,133.127h-6.198c-0.364,0-0.659-0.294-0.659-0.658c0-0.363,0.295-0.658,0.659-0.658h6.198
			c0.363,0,0.658,0.295,0.658,0.658C51.682,132.833,51.387,133.127,51.023,133.127z"/>
		<path fill="#62A698" d="M46.672,137.031h-8.23c-0.363,0-0.658-0.295-0.658-0.658c0-0.364,0.295-0.658,0.658-0.658h8.23
			c0.363,0,0.658,0.294,0.658,0.658C47.33,136.736,47.035,137.031,46.672,137.031z"/>
		<path fill="#62A698" d="M172.875,139.605h-4.691c-0.364,0-0.658-0.294-0.658-0.658s0.294-0.658,0.658-0.658h4.691
			c0.363,0,0.658,0.294,0.658,0.658S173.238,139.605,172.875,139.605z"/>
		<path fill="#62A698" d="M177.469,142.17h-6.188c-0.363,0-0.658-0.294-0.658-0.658c0-0.363,0.295-0.658,0.658-0.658h6.188
			c0.363,0,0.658,0.295,0.658,0.658C178.127,141.876,177.832,142.17,177.469,142.17z"/>
	</g>
</g>
</svg>
